<svg width="19" height="19" viewBox="0 0 19 19" fill="none" xmlns="http://www.w3.org/2000/svg">
<path d="M18 9.5C18 10.6162 17.7801 11.7215 17.353 12.7528C16.9258 13.7841 16.2997 14.7211 15.5104 15.5104C14.7211 16.2997 13.7841 16.9258 12.7528 17.353C11.7215 17.7801 10.6162 18 9.5 18C8.38376 18 7.27846 17.7801 6.24719 17.353C5.21592 16.9258 4.27889 16.2997 3.48959 15.5104C2.70029 14.7211 2.07419 13.7841 1.64702 12.7528C1.21986 11.7215 1 10.6162 1 9.5C1 8.38376 1.21986 7.27846 1.64702 6.24719C2.07419 5.21592 2.70029 4.27889 3.48959 3.48959C4.27889 2.70029 5.21592 2.07419 6.24719 1.64702C7.27846 1.21986 8.38377 1 9.5 1C10.6162 1 11.7215 1.21986 12.7528 1.64702C13.7841 2.07419 14.7211 2.7003 15.5104 3.48959C16.2997 4.27889 16.9258 5.21592 17.353 6.24719C17.7801 7.27846 18 8.38377 18 9.5L18 9.5Z" stroke="#7F7F91" stroke-width="2" stroke-linejoin="round"/>
<path d="M18 9.5C18 10.6162 17.7801 11.7215 17.353 12.7528C16.9258 13.7841 16.2997 14.7211 15.5104 15.5104C14.7211 16.2997 13.7841 16.9258 12.7528 17.353C11.7215 17.7801 10.6162 18 9.5 18" stroke="white" stroke-width="2" stroke-linecap="round"/>
</svg>
